<svg xmlns="http://www.w3.org/2000/svg" xmlns:xlink="http://www.w3.org/1999/xlink"><symbol id="icon-close" viewBox="0 0 20 20"><path d="M.293 18.291a1 1 0 101.414 1.414L10 11.413l8.292 8.292a1 1 0 101.414-1.414l-8.292-8.292 8.292-8.292A1 1 0 1018.291.293L9.999 8.585 1.707.293A1 1 0 10.293 1.707L8.585 10 .293 18.291z"/></symbol><symbol id="icon-phone" viewBox="0 0 39 40">
<path d="M36.8547 2.20032C35.4249 0.73353 33.7022 0 31.6881 0H7.31256C5.29839 0 3.57575 0.73353 2.14534 2.20032C0.715203 3.66738 0 5.43407 0 7.49994V32.4998C0 34.5655 0.715203 36.3324 2.14534 37.7994C3.57575 39.2665 5.29839 40 7.31256 40H31.6878C33.702 40 35.4246 39.2665 36.8544 37.7994C38.2848 36.3324 39 34.5656 39 32.4998V7.49994C38.9999 5.43407 38.2847 3.6671 36.8547 2.20032ZM31.941 30.3622C31.5855 31.1607 30.7857 31.8555 29.5418 32.4461C28.2977 33.0367 27.1928 33.3319 26.2277 33.3319C25.9568 33.3319 25.669 33.3105 25.3644 33.2671C25.0597 33.2234 24.8019 33.1802 24.5904 33.1368C24.3789 33.0934 24.0992 33.0154 23.7525 32.9024C23.4052 32.7898 23.1553 32.7027 23.0035 32.6421C22.8507 32.5815 22.5717 32.473 22.1657 32.3168C21.7594 32.1601 21.5052 32.0646 21.4042 32.0306C18.6282 30.9883 15.9152 29.1092 13.2662 26.3924C10.6172 23.6749 8.78476 20.893 7.76905 18.0463C7.73543 17.942 7.64232 17.6815 7.4898 17.265C7.33755 16.8487 7.23145 16.562 7.17222 16.4059C7.11334 16.2497 7.02859 15.9935 6.91849 15.6379C6.80848 15.2819 6.73253 14.9957 6.69011 14.7784C6.6476 14.5617 6.60562 14.2971 6.5632 13.9845C6.52087 13.6719 6.49979 13.3764 6.49979 13.0988C6.49979 12.1092 6.78767 10.9764 7.36334 9.70035C7.93891 8.42447 8.61588 7.60419 9.39467 7.23953C10.2918 6.85744 11.1467 6.66644 11.9592 6.66644C12.1452 6.66644 12.2808 6.68395 12.3652 6.71861C12.45 6.75373 12.5897 6.90961 12.7845 7.18744C12.9792 7.46528 13.1907 7.81672 13.4192 8.24213C13.6477 8.66764 13.872 9.08001 14.092 9.47916C14.3121 9.87839 14.5237 10.2732 14.7269 10.6641C14.9301 11.0544 15.057 11.3021 15.1077 11.4059C15.1584 11.4932 15.2685 11.6579 15.4377 11.9011C15.6068 12.144 15.7341 12.3607 15.8186 12.5519C15.9031 12.7429 15.9455 12.9253 15.9455 13.0988C15.9455 13.3596 15.7718 13.6763 15.4249 14.0493C15.0778 14.4226 14.6969 14.7656 14.2821 15.0782C13.8673 15.3908 13.4866 15.7251 13.1396 16.081C12.7928 16.4367 12.6191 16.7274 12.6191 16.9532C12.6191 17.0748 12.6487 17.2179 12.7081 17.3828C12.7673 17.5481 12.8223 17.6826 12.8731 17.7866C12.9239 17.8907 13.0045 18.0383 13.1143 18.2295C13.2243 18.4207 13.2964 18.5421 13.3301 18.5943C14.2609 20.313 15.3318 21.7931 16.5418 23.0346C17.7524 24.2763 19.1952 25.374 20.8713 26.3289C20.9217 26.3639 21.0404 26.4375 21.2274 26.5506C21.4133 26.6629 21.5576 26.7454 21.6589 26.7975C21.7606 26.8495 21.8914 26.9061 22.0525 26.9664C22.2135 27.027 22.3532 27.0575 22.4722 27.0575C22.7422 27.0575 23.1147 26.7713 23.5892 26.1985C24.063 25.6251 24.5457 25.0567 25.0366 24.4923C25.5272 23.9286 25.9246 23.6464 26.23 23.6464C26.3991 23.6464 26.5765 23.6896 26.7635 23.7763C26.9498 23.8631 27.1609 23.9936 27.3977 24.1671C27.6351 24.3413 27.7958 24.4537 27.8805 24.5065L29.2256 25.2609C30.1228 25.7472 30.8718 26.1768 31.4729 26.5501C32.074 26.9234 32.4 27.1794 32.4509 27.318C32.4846 27.4048 32.501 27.544 32.501 27.735C32.5004 28.5676 32.3141 29.4444 31.941 30.3622Z" fill="currentColor"/>
</symbol></svg>